# xmcd
#
# Track frame offsets:
#	150
#	23672
#	42750
#	60622
#	78307
#	99715
#	119600
#	141600
#	159845
#	180925
#
# Disc length: 2686 seconds
#
# Revision: 1
# Processed by: cddbd v1.5.1PL0 Copyright (c) Steve Scherf et al.
# Submitted via: CDex 1.50Beta5
#
DISCID=7b0a7c0a
DTITLE=大西結花 - ル・レーブ
DYEAR=1988
DGENRE=Pop
TTITLE0=黄昏のエチュード
TTITLE1=愛のピレネー
TTITLE2=セ・ラムール
TTITLE3=ベルベット・ロマンス
TTITLE4=DANCING CHERRY
TTITLE5=ミモザの奇蹟
TTITLE6=まぶしい想いにして
TTITLE7=夢…Rainy heart
TTITLE8=昨日よりステキに
TTITLE9=光の中で
EXTD=
EXTT0=
EXTT1=
EXTT2=
EXTT3=
EXTT4=
EXTT5=
EXTT6=
EXTT7=
EXTT8=
EXTT9=
PLAYORDER=
